<svg width="144" height="144" viewBox="0 0 144 144" fill="none" xmlns="http://www.w3.org/2000/svg">
<circle cx="72" cy="72" r="72" fill="white"/>
<path d="M72 130.805C39.7806 130.805 13.354 104.196 13.354 71.9764C13.326 64.9585 14.5827 57.9948 17.0619 51.4295L51.3525 120.468C51.8097 121.382 52.3446 122.095 53.4328 122.095C54.5209 122.095 55.1153 121.359 55.5131 120.468L71.2684 85.0982C71.4513 84.737 71.6342 84.3758 71.9954 84.3758C72.3566 84.3758 72.5395 84.737 72.7178 85.0982L88.4686 120.486C88.8618 121.378 89.4607 122.114 90.5488 122.114C91.637 122.114 92.1765 121.396 92.6291 120.486L126.92 51.4478C129.403 58.0123 130.661 64.9764 130.632 71.9947C130.632 104.214 104.206 130.824 71.9862 130.824L72 130.805ZM71.9862 58.6899C71.625 58.6899 71.4422 58.3287 71.2593 57.9675L52.811 16.4988C65.2118 12.0303 78.7835 12.0303 91.1844 16.4988L72.7223 57.9492C72.544 58.3104 72.3612 58.6716 72 58.6716L71.9862 58.6899ZM53.2545 101.192C52.8933 101.192 52.7104 100.826 52.5321 100.465L22.6764 40.3011C28.0047 32.0947 35.2393 25.2993 43.7628 20.4948L65.2104 68.2821C65.309 68.6278 65.5273 68.9271 65.8264 69.1265C66.1254 69.3259 66.4857 69.4123 66.8427 69.3703H77.1573C77.5141 69.4113 77.8739 69.3245 78.1728 69.1253C78.4716 68.9261 78.6901 68.6273 78.7895 68.2821L100.237 20.4948C108.763 25.3045 115.998 32.1063 121.323 40.3193L91.4587 100.506C91.2758 100.867 91.0975 101.233 90.7317 101.233C90.366 101.233 90.1922 100.867 90.0093 100.506L78.7895 74.8019C78.6892 74.4576 78.4704 74.1599 78.1716 73.9615C77.8728 73.7632 77.5135 73.677 77.1573 73.7183H66.8427C66.4864 73.677 66.1271 73.7632 65.8283 73.9615C65.5296 74.1599 65.3107 74.4576 65.2104 74.8019L53.9906 100.506C53.8077 100.867 53.6248 101.233 53.2636 101.233L53.2545 101.192ZM72.0091 136.799C84.824 136.797 97.3506 132.996 108.005 125.876C118.66 118.755 126.964 108.636 131.868 96.796C136.772 84.9566 138.055 71.9289 135.555 59.3602C133.056 46.7914 126.886 35.246 117.825 26.1836C108.765 17.1211 97.2207 10.9486 84.6525 8.44648C72.0842 5.94432 59.0563 7.22485 47.2158 12.1262C35.3753 17.0275 25.2539 25.3295 18.1312 35.9826C11.0086 46.6357 7.20451 59.1615 7.19999 71.9764C7.19096 80.4886 8.8609 88.9189 12.1142 96.7849C15.3675 104.651 20.1403 111.798 26.1593 117.817C32.1784 123.836 39.3254 128.609 47.1914 131.862C55.0574 135.115 63.4878 136.785 72 136.776" fill="#002F62"/>
</svg>
