<svg width="48" height="48" viewBox="0 0 48 48" fill="none" xmlns="http://www.w3.org/2000/svg">
<path d="M23.7166 29.0634C23.0776 29.0634 22.534 29.2199 22.0833 29.5339C21.6323 29.8479 21.407 30.2292 21.407 30.6762C21.407 31.1823 21.635 31.5787 22.0903 31.8675C22.5473 32.1561 23.0776 32.3005 23.686 32.3005C24.3046 32.3005 24.8436 32.1581 25.305 31.8727C25.7663 31.588 25.9956 31.1895 25.9956 30.6765C25.9956 30.2292 25.7756 29.8481 25.3353 29.5342C24.894 29.2199 24.355 29.0634 23.7166 29.0634Z" fill="#EA5455"/>
<path d="M30.2297 17.9505C29.6443 17.2583 28.806 16.7032 27.7363 16.3029C26.6743 15.9044 25.437 15.7037 24.0563 15.7037C22.571 15.7037 21.2493 15.9451 20.1293 16.4219C19.007 16.8984 18.142 17.5103 17.5547 18.2419C16.9633 18.9758 16.6653 19.7137 16.6653 20.4355C16.6653 20.8218 16.8707 21.1814 17.2757 21.5047C17.6827 21.8298 18.1893 21.9947 18.7807 21.9947C19.7873 21.9947 20.4773 21.5332 20.8277 20.6307C21.1467 19.8822 21.5397 19.3126 21.9943 18.9349C22.4223 18.5792 23.1163 18.3993 24.0567 18.3993C24.8677 18.3993 25.5073 18.5761 26.015 18.9401C26.515 19.2999 26.758 19.7293 26.758 20.2514C26.761 20.5042 26.6791 20.7533 26.5203 20.974C26.3516 21.2096 26.1416 21.4258 25.8963 21.6164C25.6363 21.8186 25.2077 22.1238 24.6217 22.522C23.939 22.9874 23.388 23.3962 22.9857 23.7335C22.5602 24.0947 22.2185 24.5105 21.9757 24.9624C21.722 25.4301 21.5937 25.987 21.5937 26.6183C21.5937 27.1578 21.787 27.5755 22.1693 27.8601C22.5477 28.1427 23.0187 28.2861 23.5703 28.2861C24.625 28.2861 25.2873 27.8378 25.484 26.9994C25.586 26.6507 25.6603 26.407 25.7107 26.2678C25.7563 26.1418 25.8223 26.0127 25.9073 25.8835C25.9897 25.7586 26.1203 25.6163 26.2953 25.4597C26.4783 25.2961 26.7273 25.1029 27.031 24.8875C28.1673 24.0978 28.9687 23.5256 29.4133 23.187C29.872 22.8373 30.272 22.4185 30.6037 21.941C30.9423 21.451 31.1147 20.8757 31.1147 20.2304C31.114 19.4127 30.816 18.6463 30.2277 17.9513" fill="#EA5455"/>
</svg>
