<svg width="32" height="26" viewBox="0 0 32 26" fill="none" xmlns="http://www.w3.org/2000/svg">
<path d="M20 4.70371H8.00001V21.2963H24V7.81482H20V4.70371ZM8.00001 2.62964H21.3333L26.6667 6.77779V21.2963C26.6667 21.8464 26.3857 22.3739 25.8856 22.7629C25.3855 23.1519 24.7073 23.3704 24 23.3704H8.00001C7.29277 23.3704 6.61449 23.1519 6.11439 22.7629C5.61429 22.3739 5.33334 21.8464 5.33334 21.2963V4.70371C5.33334 4.15363 5.61429 3.62608 6.11439 3.23712C6.61449 2.84816 7.29277 2.62964 8.00001 2.62964ZM10.6667 11.963H21.3333V14.037H10.6667V11.963ZM10.6667 16.1111H21.3333V18.1852H10.6667V16.1111Z" fill="black"/>
</svg>
