<svg width="32" height="32" viewBox="0 0 32 32" fill="none" xmlns="http://www.w3.org/2000/svg">
<path d="M15.6667 2.66675C8.47767 2.66675 2.66667 8.47775 2.66667 15.6667C2.66667 22.8557 8.47767 28.6667 15.6667 28.6667C22.8557 28.6667 28.6667 22.8557 28.6667 15.6667C28.6667 8.47775 22.8557 2.66675 15.6667 2.66675ZM22.1667 20.3337L20.3337 22.1667L15.6667 17.4997L10.9997 22.1667L9.16667 20.3337L13.8337 15.6667L9.16667 10.9997L10.9997 9.16675L15.6667 13.8337L20.3337 9.16675L22.1667 10.9997L17.4997 15.6667L22.1667 20.3337Z" fill="white"/>
<path d="M22.1667 20.3337L20.3337 22.1667L15.6667 17.4997L10.9997 22.1667L9.16667 20.3337L13.8337 15.6667L9.16667 10.9997L10.9997 9.16675L15.6667 13.8337L20.3337 9.16675L22.1667 10.9997L17.4997 15.6667L22.1667 20.3337Z" fill="white"/>
<path d="M15.6667 2.66675C8.47767 2.66675 2.66667 8.47775 2.66667 15.6667C2.66667 22.8557 8.47767 28.6667 15.6667 28.6667C22.8557 28.6667 28.6667 22.8557 28.6667 15.6667C28.6667 8.47775 22.8557 2.66675 15.6667 2.66675ZM22.1667 20.3337L20.3337 22.1667L15.6667 17.4997L10.9997 22.1667L9.16667 20.3337L13.8337 15.6667L9.16667 10.9997L10.9997 9.16675L15.6667 13.8337L20.3337 9.16675L22.1667 10.9997L17.4997 15.6667L22.1667 20.3337Z" fill="black"/>
</svg>
