<svg width="32" height="26" viewBox="0 0 32 26" fill="none" xmlns="http://www.w3.org/2000/svg">
<path fill-rule="evenodd" clip-rule="evenodd" d="M22.2267 14.1719C24.0534 15.1364 25.3334 16.443 25.3334 18.1853V21.2964H30.6667V18.1853C30.6667 15.9245 25.9067 14.5868 22.2267 14.1719Z" fill="#52AE31"/>
<path d="M12 12.9999C14.9455 12.9999 17.3333 11.1427 17.3333 8.85176C17.3333 6.5608 14.9455 4.70361 12 4.70361C9.05447 4.70361 6.66666 6.5608 6.66666 8.85176C6.66666 11.1427 9.05447 12.9999 12 12.9999Z" fill="#52AE31"/>
<path fill-rule="evenodd" clip-rule="evenodd" d="M20 12.9999C22.9467 12.9999 25.3333 11.1436 25.3333 8.85176C25.3333 6.55991 22.9467 4.70361 20 4.70361C19.3733 4.70361 18.7867 4.80732 18.2267 4.9525C19.374 6.05613 20 7.43248 20 8.85176C20 10.271 19.374 11.6474 18.2267 12.751C18.7867 12.8962 19.3733 12.9999 20 12.9999ZM12 14.0369C8.44001 14.0369 1.33334 15.4266 1.33334 18.1851V21.2962H22.6667V18.1851C22.6667 15.4266 15.56 14.0369 12 14.0369Z" fill="#52AE31"/>
</svg>
