<svg width="41" height="40" viewBox="0 0 41 40" fill="none" xmlns="http://www.w3.org/2000/svg">
<path d="M27.2412 10.0474C27.1287 9.98321 26.9904 9.98429 26.879 10.0502L20.2712 13.9576C20.0998 14.0589 20.043 14.28 20.1444 14.4515C20.2457 14.6228 20.4668 14.6796 20.6383 14.5783L25.3792 11.7748L16.5485 20.9376L12.1564 19.5939L17.8883 16.2044C18.0597 16.103 18.1165 15.8819 18.0151 15.7105C17.9138 15.5391 17.6927 15.4823 17.5212 15.5837L11.0857 19.3892C10.9627 19.4619 10.8943 19.6003 10.9112 19.7422C10.9281 19.8841 11.0271 20.0026 11.1637 20.0444L16.409 21.6491L18.7231 25.8611C18.7255 25.8655 18.728 25.8691 18.7305 25.8724C18.7692 25.9368 18.827 25.9894 18.8992 26.0198C18.9444 26.0388 18.9919 26.0481 19.039 26.0481C19.1315 26.0481 19.2224 26.0125 19.2911 25.9453L21.952 23.3448L26.957 24.8761C26.9916 24.8866 27.0271 24.8919 27.0625 24.8919C27.1388 24.8919 27.2141 24.8676 27.2769 24.8212C27.3688 24.7532 27.4231 24.6456 27.4231 24.5313V10.3606C27.4231 10.2311 27.3536 10.1115 27.2412 10.0474ZM18.7427 21.8713C18.701 21.9316 18.6786 22.0032 18.6786 22.0766V24.2823L17.0984 21.4062L24.0908 14.151L18.7427 21.8713ZM19.3997 24.8309V22.5641L21.1662 23.1045L19.3997 24.8309ZM26.7019 24.0439L19.6166 21.8762L26.7019 11.648V24.0439Z" fill="white"/>
<path d="M14.8903 22.5333C14.7494 22.3925 14.5212 22.3925 14.3803 22.5333L11.0142 25.8994C10.8734 26.0402 10.8734 26.2685 11.0142 26.4094C11.0847 26.4797 11.177 26.5149 11.2692 26.5149C11.3615 26.5149 11.4538 26.4798 11.5242 26.4093L14.8903 23.0433C15.0311 22.9025 15.0311 22.6742 14.8903 22.5333Z" fill="white"/>
<path d="M10.4064 27.0167C10.2656 26.8759 10.0373 26.8759 9.89648 27.0167L9.06715 27.846C8.92635 27.9869 8.92635 28.2152 9.06715 28.356C9.13757 28.4264 9.22984 28.4616 9.32212 28.4616C9.41439 28.4616 9.50666 28.4264 9.57708 28.356L10.4064 27.5266C10.5472 27.3858 10.5472 27.1575 10.4064 27.0167Z" fill="white"/>
<path d="M14.1052 27.8244C14.0381 27.7573 13.9451 27.7188 13.8503 27.7188C13.755 27.7188 13.6624 27.7573 13.5953 27.8244C13.5283 27.8915 13.4897 27.9841 13.4897 28.0793C13.4897 28.1742 13.5282 28.2672 13.5953 28.3343C13.6624 28.4013 13.7554 28.4399 13.8503 28.4399C13.9451 28.4399 14.0381 28.4013 14.1052 28.3343C14.1722 28.2672 14.2108 28.1742 14.2108 28.0793C14.2108 27.9841 14.1723 27.8915 14.1052 27.8244Z" fill="white"/>
<path d="M16.788 25.1417C16.6472 25.0009 16.419 25.0009 16.278 25.1417L14.4951 26.9246C14.3543 27.0654 14.3543 27.2937 14.4951 27.4345C14.5656 27.505 14.6578 27.5402 14.7501 27.5402C14.8424 27.5402 14.9346 27.5049 15.0051 27.4345L16.788 25.6517C16.9288 25.5109 16.9288 25.2825 16.788 25.1417Z" fill="white"/>
<path d="M22.9412 25.005C22.8004 24.8642 22.5722 24.8642 22.4313 25.005L20.6436 26.7927C20.5028 26.9335 20.5028 27.1618 20.6436 27.3027C20.714 27.3731 20.8063 27.4083 20.8985 27.4083C20.9908 27.4083 21.0831 27.3731 21.1535 27.3027L22.9412 25.515C23.0821 25.3741 23.0821 25.1458 22.9412 25.005Z" fill="white"/>
<path d="M19.1839 14.9152C19.1169 14.8482 19.0238 14.8096 18.929 14.8096C18.8342 14.8096 18.7411 14.8482 18.6741 14.9152C18.607 14.9823 18.5684 15.0753 18.5684 15.1705C18.5684 15.2653 18.607 15.358 18.6741 15.4251C18.7411 15.4925 18.8342 15.5307 18.929 15.5307C19.0238 15.5307 19.1169 15.4925 19.1839 15.4251C19.251 15.358 19.2896 15.2653 19.2896 15.1705C19.2896 15.0753 19.251 14.9823 19.1839 14.9152Z" fill="white"/>
</svg>
