<svg width="32" height="26" viewBox="0 0 32 26" fill="none" xmlns="http://www.w3.org/2000/svg">
<path d="M22.6667 11.9628H9.33333V14.0369H22.6667V11.9628ZM25.3333 4.70359H24V2.62952H21.3333V4.70359H10.6667V2.62952H8V4.70359H6.66667C5.18667 4.70359 4.01333 5.63692 4.01333 6.77766L4 21.2962C4 21.8463 4.28095 22.3738 4.78105 22.7628C5.28115 23.1517 5.95942 23.3703 6.66667 23.3703H25.3333C26.8 23.3703 28 22.4369 28 21.2962V6.77766C28 5.63692 26.8 4.70359 25.3333 4.70359ZM25.3333 21.2962H6.66667V9.88877H25.3333V21.2962ZM18.6667 16.111H9.33333V18.1851H18.6667V16.111Z" fill="#FFBA03"/>
</svg>
