<svg width="18" height="18" viewBox="0 0 18 18" fill="none" xmlns="http://www.w3.org/2000/svg">
<path d="M16.6133 11.3076C16.3657 11.3076 16.165 11.5083 16.165 11.7559V15.7363C16.1641 16.4788 15.5626 17.0805 14.8201 17.0812H2.24147C1.49898 17.0805 0.897462 16.4788 0.896587 15.7363V4.05421C0.897462 3.3119 1.49898 2.71021 2.24147 2.70933H6.22182C6.46943 2.70933 6.67011 2.50865 6.67011 2.26104C6.67011 2.0136 6.46943 1.81274 6.22182 1.81274H2.24147C1.00411 1.81415 0.00140092 2.81685 0 4.05421V15.7365C0.00140092 16.9738 1.00411 17.9765 2.24147 17.9779H14.8201C16.0575 17.9765 17.0602 16.9738 17.0616 15.7365V11.7559C17.0616 11.5083 16.8609 11.3076 16.6133 11.3076Z" fill="white" fill-opacity="0.9"/>
<path d="M16.884 0.658996C16.0961 -0.128845 14.8189 -0.128845 14.031 0.658996L6.03318 8.65683C5.97837 8.71164 5.9388 8.77958 5.91813 8.85418L4.8664 12.6512C4.82314 12.8069 4.8671 12.9736 4.98127 13.0879C5.09562 13.2021 5.26233 13.2461 5.41801 13.203L9.21502 12.1511C9.28962 12.1304 9.35756 12.0908 9.41237 12.036L17.41 4.03801C18.1967 3.24964 18.1967 1.97341 17.41 1.18504L16.884 0.658996ZM7.00997 8.94822L13.5556 2.40244L15.6666 4.51344L9.12081 11.0592L7.00997 8.94822ZM6.5883 9.79437L8.27483 11.4811L5.94195 12.1274L6.5883 9.79437ZM16.7761 3.40409L16.3007 3.87953L14.1895 1.76835L14.6651 1.29291C15.1027 0.855299 15.8123 0.855299 16.2499 1.29291L16.7761 1.81895C17.213 2.25709 17.213 2.96613 16.7761 3.40409Z" fill="white" fill-opacity="0.9"/>
</svg>
