<svg width="32" height="26" viewBox="0 0 32 26" fill="none" xmlns="http://www.w3.org/2000/svg">
<path d="M16 6.77779C17.4727 6.77779 18.6666 5.84919 18.6666 4.70371C18.6666 3.55823 17.4727 2.62964 16 2.62964C14.5272 2.62964 13.3333 3.55823 13.3333 4.70371C13.3333 5.84919 14.5272 6.77779 16 6.77779Z" fill="#01B1EC"/>
<path d="M21.1866 8.96593C20.6666 8.56149 19.7733 7.81482 18.04 7.81482H14.6533C10.9866 7.80445 7.99998 5.48149 7.99998 2.62964H5.33331C5.33331 5.90668 8.14665 8.68593 12 9.58816V23.3704H14.6666V17.1482H17.3333V23.3704H20V10.9778L25.2666 15.0741L27.1466 13.6119L21.1866 8.96593Z" fill="#01B1EC"/>
</svg>
