<svg width="48" height="48" viewBox="0 0 48 48" fill="none" xmlns="http://www.w3.org/2000/svg">
<path d="M18.7698 21.7588L18.4445 21.2768L10.4383 24.5462L11.1686 25.628L9.08201 26.4801L12.1127 30.9698L14.1992 30.1178L14.9295 31.1996L16.6725 30.4878L16.6725 30.4879L21.5335 28.5029L21.5335 28.5029L22.9357 27.9303L22.6103 27.4483L22.6105 27.4483L18.7699 21.7588L18.7698 21.7588Z" fill="#D84E4E"/>
<path d="M22.6957 29.5807L17.8348 31.5657L22.0107 35.4387L26.8717 33.4537L22.6957 29.5807Z" fill="#D84E4E"/>
<path d="M21.5868 19.5306C21.0528 20.0014 20.5503 20.4149 20.0985 20.7699L24.4115 27.1592C25.0436 27.0715 25.7667 26.9846 26.5681 26.91C29.3019 26.6558 33.5116 26.4994 38.1895 27.166L27.9149 11.945C25.9642 15.3184 23.4082 17.9248 21.5868 19.5306Z" fill="#D84E4E"/>
<path d="M33.1148 15.9073L32.7 16.0767L36.534 21.7564L36.9488 21.5871C37.9996 21.1579 38.4057 20.1439 37.854 19.3265L36.0212 16.6113C35.4695 15.794 34.1656 15.4782 33.1148 15.9073Z" fill="#D84E4E"/>
</svg>
