<svg width="24" height="24" viewBox="0 0 24 24" fill="none" xmlns="http://www.w3.org/2000/svg">
<path d="M11.7293 8C12.7902 8 13.8076 8.42143 14.5578 9.17157C15.3079 9.92172 15.7293 10.9391 15.7293 12C15.7293 13.0609 15.3079 14.0783 14.5578 14.8284C13.8076 15.5786 12.7902 16 11.7293 16C10.6685 16 9.65105 15.5786 8.9009 14.8284C8.15076 14.0783 7.72933 13.0609 7.72933 12C7.72933 10.9391 8.15076 9.92172 8.9009 9.17157C9.65105 8.42143 10.6685 8 11.7293 8ZM11.7293 10C11.1989 10 10.6902 10.2107 10.3151 10.5858C9.94005 10.9609 9.72933 11.4696 9.72933 12C9.72933 12.5304 9.94005 13.0391 10.3151 13.4142C10.6902 13.7893 11.1989 14 11.7293 14C12.2598 14 12.7685 13.7893 13.1435 13.4142C13.5186 13.0391 13.7293 12.5304 13.7293 12C13.7293 11.4696 13.5186 10.9609 13.1435 10.5858C12.7685 10.2107 12.2598 10 11.7293 10ZM9.72933 22C9.47933 22 9.26933 21.82 9.22933 21.58L8.85933 18.93C8.22933 18.68 7.68933 18.34 7.16933 17.94L4.67933 18.95C4.45933 19.03 4.18933 18.95 4.06933 18.73L2.06933 15.27C1.93933 15.05 1.99933 14.78 2.18933 14.63L4.29933 12.97L4.22933 12L4.29933 11L2.18933 9.37C1.99933 9.22 1.93933 8.95 2.06933 8.73L4.06933 5.27C4.18933 5.05 4.45933 4.96 4.67933 5.05L7.16933 6.05C7.68933 5.66 8.22933 5.32 8.85933 5.07L9.22933 2.42C9.26933 2.18 9.47933 2 9.72933 2H13.7293C13.9793 2 14.1893 2.18 14.2293 2.42L14.5993 5.07C15.2293 5.32 15.7693 5.66 16.2893 6.05L18.7793 5.05C18.9993 4.96 19.2693 5.05 19.3893 5.27L21.3893 8.73C21.5193 8.95 21.4593 9.22 21.2693 9.37L19.1593 11L19.2293 12L19.1593 13L21.2693 14.63C21.4593 14.78 21.5193 15.05 21.3893 15.27L19.3893 18.73C19.2693 18.95 18.9993 19.04 18.7793 18.95L16.2893 17.95C15.7693 18.34 15.2293 18.68 14.5993 18.93L14.2293 21.58C14.1893 21.82 13.9793 22 13.7293 22H9.72933ZM10.9793 4L10.6093 6.61C9.40933 6.86 8.34933 7.5 7.57933 8.39L5.16933 7.35L4.41933 8.65L6.52933 10.2C6.12933 11.37 6.12933 12.64 6.52933 13.8L4.40933 15.36L5.15933 16.66L7.58933 15.62C8.35933 16.5 9.40933 17.14 10.5993 17.38L10.9693 20H12.4893L12.8593 17.39C14.0493 17.14 15.0993 16.5 15.8693 15.62L18.2993 16.66L19.0493 15.36L16.9293 13.81C17.3293 12.64 17.3293 11.37 16.9293 10.2L19.0393 8.65L18.2893 7.35L15.8793 8.39C15.1093 7.5 14.0493 6.86 12.8493 6.62L12.4793 4H10.9793Z" fill="#EA5455"/>
</svg>
