<svg width="176" height="160" viewBox="0 0 176 160" fill="none" xmlns="http://www.w3.org/2000/svg">
<g clip-path="url(#clip0)">
<path d="M87.9997 141.744C54.1357 141.744 26.3918 113.864 26.3918 80C26.3918 72.384 27.7518 65.176 30.3358 58.376L66.3757 130.864C66.7837 131.816 67.4637 132.632 68.5517 132.632C69.6397 132.632 70.3197 131.816 70.7277 130.864L87.3197 93.736C87.4557 93.328 87.7277 92.92 88.1357 92.92C88.5437 92.92 88.6797 93.328 88.9517 93.736L105.544 130.864C105.952 131.816 106.632 132.632 107.72 132.632C108.808 132.632 109.488 131.816 109.896 130.864L145.936 58.376C148.52 65.176 149.88 72.384 149.88 80C149.608 113.864 121.864 141.744 87.9997 141.744ZM87.9997 65.992C87.5917 65.992 87.4557 65.584 87.1837 65.176L67.8717 21.656C74.1277 19.344 80.9277 18.12 87.9997 18.12C95.0717 18.12 101.872 19.344 108.128 21.656L88.8157 65.176C88.5437 65.72 88.4077 65.992 87.9997 65.992ZM68.2797 110.736C67.8717 110.736 67.7357 110.328 67.4637 109.92L36.1838 46.816C41.7598 38.248 49.2398 31.04 58.3517 26.008L80.9277 76.192C81.1997 77.008 81.8797 77.28 82.5597 77.28H93.4397C94.2557 77.28 94.7997 77.144 95.2077 76.192L117.784 26.008C126.76 31.04 134.376 38.248 139.952 46.816L108.4 109.92C108.264 110.328 107.992 110.736 107.584 110.736C107.176 110.736 107.04 110.328 106.768 109.92L94.9357 82.992C94.5277 82.04 93.9837 81.904 93.1677 81.904H82.2877C81.4717 81.904 80.9277 82.04 80.5197 82.992L69.0957 109.92C68.9597 110.328 68.6877 110.736 68.2797 110.736ZM87.9997 148C125.672 148 156 117.672 156 80C156 42.328 125.672 12 87.9997 12C50.3277 12 19.9998 42.328 19.9998 80C19.9998 117.672 50.3277 148 87.9997 148Z" fill="white"/>
</g>
<defs>
<clipPath id="clip0">
<rect width="176" height="160" fill="white"/>
</clipPath>
</defs>
</svg>
